<svg width="30" height="30" viewBox="0 0 30 30" fill="none" xmlns="http://www.w3.org/2000/svg">
<path fill-rule="evenodd" clip-rule="evenodd" d="M1 15C1 7.28712 7.27487 1 15 1C22.7129 1 29 7.28712 29 15C29 22.7251 22.7129 29 15 29C7.27487 29 1 22.7251 1 15ZM27.4381 14.9995C27.4381 8.11219 21.8876 2.56164 15.0003 2.56164C8.11262 2.56164 2.54926 8.11183 2.54926 14.9995C2.54926 21.8872 8.11298 27.4505 15.0003 27.4505C21.8876 27.4505 27.4381 21.8868 27.4381 14.9995ZM10.3333 8.46667H16.4311C18.8328 8.46667 20.7867 10.3454 20.7867 12.6547C20.7867 14.964 18.8328 16.8427 16.4311 16.8427H12.0756V21.5333H10.3333V8.46667ZM12.0756 15.1675H16.4311C17.8721 15.1675 19.0444 14.0403 19.0444 12.6547C19.0444 11.2691 17.8721 10.1419 16.4311 10.1419H12.0756V15.1675Z" fill="#555555"/>
</svg>
