<svg width="30" height="30" viewBox="0 0 30 30" fill="none" xmlns="http://www.w3.org/2000/svg">
<path fill-rule="evenodd" clip-rule="evenodd" d="M26.7636 15.9417C26.7607 17.0781 25.9613 18.0465 24.8413 18.2956V10.7568C25.9449 11.0204 26.7617 12.0101 26.7636 13.1146V15.9417ZM23.3273 19.321C23.3273 20.0181 22.7355 20.5858 22.0084 20.5858C21.2814 20.5858 20.6905 20.0181 20.6905 19.321V9.73531C20.6905 9.03821 21.2814 8.47048 22.0084 8.47048C22.7355 8.47048 23.3273 9.03821 23.3273 9.73531V19.321ZM10.0988 16.0691H19.1766V12.9862H10.0988V16.0691ZM8.58582 19.321C8.58582 20.0181 7.99396 20.5858 7.26693 20.5858C6.53989 20.5858 5.94707 20.0181 5.94707 19.321V9.73531C5.94707 9.03821 6.53989 8.47048 7.26693 8.47048C7.99396 8.47048 8.58582 9.03821 8.58582 9.73531V19.321ZM4.43507 18.3023C3.31314 18.0243 2.51369 17.053 2.51272 15.9417V13.1146C2.51465 11.9908 3.3141 11.0204 4.43507 10.7559V18.3023ZM24.7891 9.23324C24.5207 7.87476 23.2655 6.92083 21.8289 7.01448C20.3478 7.10621 19.1824 8.30055 19.1775 9.73434V11.5177H10.0978V9.73531C10.0969 8.2291 8.8272 7.00193 7.26693 7C5.90845 7.00193 4.75465 7.94041 4.48914 9.24386C2.46445 9.54897 1.00265 11.1633 0.999756 13.1146V15.9417C1.00265 17.8785 2.49534 19.5266 4.4872 19.8124C4.7421 21.1168 5.90362 22.0447 7.2621 22.0447C7.32196 22.0447 7.38376 22.0428 7.44555 22.0389C8.92569 21.9501 10.0911 20.7567 10.0978 19.3219V17.5386H19.1775V19.32C19.1843 20.7528 20.3497 21.9462 21.8298 22.037C23.281 22.1229 24.5082 21.1912 24.7978 19.8037C26.7829 19.5189 28.2718 17.8737 28.2756 15.9417V13.1146C28.2727 11.1546 26.8119 9.53545 24.7891 9.23324V9.23324Z" fill="#555555"/>
</svg>
